<svg width="72" height="72" viewBox="0 0 72 72" fill="none" xmlns="http://www.w3.org/2000/svg">
<g id="Group">
<path id="Vector" d="M22.6334 40.635C22.5454 32.4999 22.1937 24.4594 21.666 16.3242C27.1183 20.6756 32.3067 25.3107 37.3193 30.135C29.2289 28.2431 21.1384 26.7296 12.8721 25.8783C14.455 25.1215 15.6861 24.3648 17.357 23.7972C22.8093 21.8107 28.2615 19.7296 33.6258 17.7431C29.7565 25.5945 26.151 32.5945 22.6334 40.635Z" stroke="#F9F88C" stroke-width="2" stroke-miterlimit="10" stroke-linecap="round" stroke-linejoin="round"/>
<path id="Vector_2" d="M47.6078 45.9325C43.0349 46.973 38.4621 47.7298 33.8013 48.1082C37.055 50.0001 40.3088 51.7974 43.5626 53.6893C44.5299 54.2568 45.7611 54.8244 46.8163 54.919C44.7937 51.2298 42.7711 47.5406 40.7485 43.8514C40.4847 44.6082 40.2209 45.4595 40.045 46.2163C38.9897 49.8109 37.4947 53.2163 36.0877 56.6217C40.045 53.2163 43.6505 49.5271 47.6078 45.9325Z" stroke="#F9F88C" stroke-width="2" stroke-miterlimit="10" stroke-linecap="round" stroke-linejoin="round"/>
<path id="Vector_3" d="M54.9072 21.3378C50.8619 22.1892 46.8167 23.0405 42.7715 23.7027C46.6408 24.9324 50.4222 26.4459 53.8519 28.8108C53.5881 27.7703 53.0604 26.8243 52.6207 25.8784C51.3016 23.4189 50.0705 20.8649 48.7514 18.4054C48.3117 22.3784 47.784 26.2567 46.9926 30.1351C49.1911 26.8243 52.0931 23.9865 54.9072 21.3378Z" stroke="#F9F88C" stroke-width="2" stroke-miterlimit="10" stroke-linecap="round" stroke-linejoin="round"/>
<path id="Vector_4" d="M36.7036 2.51355C38.1106 5.0676 39.078 7.90544 39.6936 10.8379" stroke="#F9F88C" stroke-width="2" stroke-miterlimit="10" stroke-linecap="round" stroke-linejoin="round"/>
<path id="Vector_5" d="M21.666 1C22.7213 3.27027 23.8645 5.35135 25.1836 7.43244" stroke="#F9F88C" stroke-width="2" stroke-miterlimit="10" stroke-linecap="round" stroke-linejoin="round"/>
<path id="Vector_6" d="M59.3037 11.7838C61.3263 10.3649 63.4369 8.85136 65.4595 7.43244C65.8112 7.24325 66.163 6.95947 66.5147 7.05407" stroke="#F9F88C" stroke-width="2" stroke-miterlimit="10" stroke-linecap="round" stroke-linejoin="round"/>
<path id="Vector_7" d="M63.7007 37.6081C65.9871 36.1892 68.4494 35.1486 70.9997 34.5811" stroke="#F9F88C" stroke-width="2" stroke-miterlimit="10" stroke-linecap="round" stroke-linejoin="round"/>
<path id="Vector_8" d="M61.5024 56.054C63.9648 58.135 65.9873 60.6891 67.3944 63.6215" stroke="#F9F88C" stroke-width="2" stroke-miterlimit="10" stroke-linecap="round" stroke-linejoin="round"/>
<path id="Vector_9" d="M46.4648 63.0541C46.9045 65.7027 47.3442 68.3514 47.696 71" stroke="#F9F88C" stroke-width="2" stroke-miterlimit="10" stroke-linecap="round" stroke-linejoin="round"/>
<path id="Vector_10" d="M28.7891 57.1892C27.9097 59.5541 27.0303 62.0135 26.1509 64.3784" stroke="#F9F88C" stroke-width="2" stroke-miterlimit="10" stroke-linecap="round" stroke-linejoin="round"/>
<path id="Vector_11" d="M9.09082 47.4459C11.729 45.3648 14.4551 43.2837 17.0933 41.2972" stroke="#F9F88C" stroke-width="2" stroke-miterlimit="10" stroke-linecap="round" stroke-linejoin="round"/>
<path id="Vector_12" d="M1 16.1351C3.98995 16.6081 6.89196 16.9865 9.88191 17.4595" stroke="#F9F88C" stroke-width="2" stroke-miterlimit="10" stroke-linecap="round" stroke-linejoin="round"/>
</g>
</svg>
