<svg width="72" height="72" viewBox="0 0 72 72" fill="none" xmlns="http://www.w3.org/2000/svg">
<g id="Group">
<path id="Vector" d="M49.6362 29.4243C39.6362 32.5354 29.6362 35.6465 19.6362 38.7576C28.2726 41.8687 36.4544 45.8283 44.4847 50.2122C42.0605 40.1718 38.1211 30.5556 32.8181 21.6465C31.4544 32.1111 30.2423 42.4344 29.3332 52.899C36.6059 45.2627 43.2726 37.7677 49.6362 29.4243Z" stroke="#F9F88C" stroke-width="2" stroke-miterlimit="10" stroke-linecap="round" stroke-linejoin="round"/>
<path id="Vector_2" d="M32.0605 60.5353C31.6059 64.0706 31.3029 67.4646 31.1514 71" stroke="#F9F88C" stroke-width="2" stroke-miterlimit="10" stroke-linecap="round" stroke-linejoin="round"/>
<path id="Vector_3" d="M46.0005 59.1212C47.3641 62.5152 49.1823 65.9091 51.3035 68.8788" stroke="#F9F88C" stroke-width="2" stroke-miterlimit="10" stroke-linecap="round" stroke-linejoin="round"/>
<path id="Vector_4" d="M55.5454 52.8989C58.7272 54.8787 62.3636 56.2929 65.9999 57.2828" stroke="#F9F88C" stroke-width="2" stroke-miterlimit="10" stroke-linecap="round" stroke-linejoin="round"/>
<path id="Vector_5" d="M59.0298 39.606C63.1207 39.8888 67.0601 39.4646 70.9995 38.6161" stroke="#F9F88C" stroke-width="2" stroke-miterlimit="10" stroke-linecap="round" stroke-linejoin="round"/>
<path id="Vector_6" d="M54.1821 22.6364C57.8185 20.6566 61.7579 18.9597 66.0003 17.8284" stroke="#F9F88C" stroke-width="2" stroke-miterlimit="10" stroke-linecap="round" stroke-linejoin="round"/>
<path id="Vector_7" d="M49.6363 3.9696C48.1211 7.36354 46.606 10.7575 45.0908 14.1514" stroke="#F9F88C" stroke-width="2" stroke-miterlimit="10" stroke-linecap="round" stroke-linejoin="round"/>
<path id="Vector_8" d="M26.9092 1C27.3637 4.39394 28.1213 7.64646 29.1819 10.899" stroke="#F9F88C" stroke-width="2" stroke-miterlimit="10" stroke-linecap="round" stroke-linejoin="round"/>
<path id="Vector_9" d="M9.48486 10.899C12.3637 13.1617 14.9394 15.7071 17.2121 18.5354" stroke="#F9F88C" stroke-width="2" stroke-miterlimit="10" stroke-linecap="round" stroke-linejoin="round"/>
<path id="Vector_10" d="M1 25.6061C4.63636 26.3131 8.42425 27.0202 12.0606 27.8687" stroke="#F9F88C" stroke-width="2" stroke-miterlimit="10" stroke-linecap="round" stroke-linejoin="round"/>
<path id="Vector_11" d="M1.60596 45.5455C4.63626 44.9798 7.51505 44.2727 10.3938 43.2828" stroke="#F9F88C" stroke-width="2" stroke-miterlimit="10" stroke-linecap="round" stroke-linejoin="round"/>
<path id="Vector_12" d="M11.1519 63.0809C13.5761 60.2526 16.0003 57.5657 18.5761 54.7374" stroke="#F9F88C" stroke-width="2" stroke-miterlimit="10" stroke-linecap="round" stroke-linejoin="round"/>
</g>
</svg>
