<svg width="72" height="72" viewBox="0 0 72 72" fill="none" xmlns="http://www.w3.org/2000/svg">
<g id="Group">
<path id="Vector" d="M21.2698 24.4327C14.4712 25.7235 7.79856 27.0143 1 28.305C8.17626 30.2909 15.2266 32.7731 21.8993 35.7518C17.7446 31.0852 13.7158 26.3192 9.81295 21.454C9.30935 27.4114 8.93165 33.3689 8.42805 39.3263C9.56114 37.1419 11.4496 35.8511 12.9604 33.8653C13.8417 32.7731 14.723 31.5816 15.4784 30.3901C16.7374 28.6029 20.1367 26.1206 21.2698 24.4327Z" stroke="#F9F88C" stroke-width="2" stroke-miterlimit="10" stroke-linecap="round" stroke-linejoin="round"/>
<path id="Vector_2" d="M56.0179 18.9716C55.892 12.9149 59.0395 6.95745 58.1582 1C62.9424 5.76596 67.223 10.7305 70.9999 15.9929C67.9784 14.4043 64.579 13.0142 61.0539 12.4184C59.9208 12.2199 58.7877 12.1206 57.6546 12.0213C55.1366 11.7234 52.7445 11.1277 50.2266 10.6312C56.7733 9.34044 62.3129 5.76595 68.8596 4.77304C66.5935 10.0354 59.0395 13.8085 56.0179 18.9716Z" stroke="#F9F88C" stroke-width="2" stroke-miterlimit="10" stroke-linecap="round" stroke-linejoin="round"/>
<path id="Vector_3" d="M64.2017 60.376C57.7808 60.4753 51.4859 59.9788 45.1909 58.8866C48.0866 61.4682 51.9895 63.3547 54.6334 66.0356C55.5147 67.0285 56.3959 68.0214 57.529 68.8157C58.4103 69.4115 59.7952 70.0072 59.6693 71.0001C58.788 65.7377 57.6549 60.376 56.27 55.2129C52.8708 60.0781 49.8492 64.9434 47.0794 70.1065C52.8708 66.7306 58.4103 63.7519 64.2017 60.376Z" stroke="#F9F88C" stroke-width="2" stroke-miterlimit="10" stroke-linecap="round" stroke-linejoin="round"/>
</g>
</svg>
