<svg width="135" height="102" viewBox="0 0 135 102" fill="none" xmlns="http://www.w3.org/2000/svg">
<g clip-path="url(#clip0_72_120)">
<path d="M0.800395 101.896C0.562182 101.896 0.371612 101.839 0.219156 101.725C0.0666996 101.611 0 101.478 0 101.317V90.1028C0 89.913 0.0857566 89.7612 0.25727 89.6663C0.428783 89.562 0.609825 89.5145 0.800395 89.5145H3.89716C4.50699 89.5145 5.0787 89.5904 5.60277 89.7517C6.12684 89.913 6.54609 90.1976 6.86053 90.6246C7.17497 91.0515 7.33696 91.6587 7.33696 92.4462C7.33696 93.1577 7.21309 93.746 6.95582 94.2108C6.69855 94.6757 6.34599 94.9983 5.88862 95.1975C6.24118 95.3304 6.54609 95.5106 6.80336 95.7288C7.06063 95.947 7.27026 96.2412 7.41319 96.6112C7.55611 96.9812 7.63234 97.4461 7.63234 98.0248V98.3474C7.63234 99.2202 7.48941 99.9128 7.19403 100.435C6.89865 100.956 6.49845 101.326 5.98391 101.564C5.46937 101.791 4.89766 101.915 4.24972 101.915H0.800395V101.896ZM1.79136 94.4765H3.83046C4.4117 94.4765 4.84049 94.3342 5.11681 94.0401C5.39314 93.746 5.53607 93.3095 5.53607 92.7308C5.53607 92.3513 5.46937 92.0382 5.32644 91.801C5.18351 91.5638 4.98341 91.393 4.72614 91.2792C4.46887 91.1654 4.15443 91.1084 3.81141 91.1084H1.78183V94.4765H1.79136ZM1.79136 100.302H3.91622C4.52605 100.302 5.00247 100.131 5.33597 99.799C5.66947 99.4669 5.84098 98.9356 5.84098 98.1956V97.9204C5.84098 97.1709 5.66947 96.6491 5.33597 96.3455C5.00247 96.0419 4.52605 95.8901 3.91622 95.8901H1.78183V100.292L1.79136 100.302Z" fill="white"/>
<path d="M19.3427 101.896C19.114 101.896 18.9044 101.848 18.7233 101.744C18.5328 101.64 18.447 101.497 18.447 101.307V97.0191C18.447 96.9527 18.4279 96.8863 18.3994 96.8293L14.8738 90.5107C14.8548 90.4538 14.8357 90.4063 14.8262 90.3684C14.8262 90.3304 14.8262 90.2925 14.8262 90.2545C14.8262 90.1122 14.8929 89.9794 15.0167 89.875C15.1406 89.7707 15.2931 89.6853 15.4646 89.6094C15.6361 89.543 15.8076 89.505 15.9696 89.505C16.1125 89.505 16.2364 89.543 16.3221 89.6094C16.4079 89.6758 16.4841 89.7801 16.5508 89.913L19.3617 95.2829L22.1536 89.913C22.2298 89.7801 22.3156 89.6758 22.4013 89.6094C22.4871 89.543 22.6014 89.505 22.7539 89.505C22.9159 89.505 23.0779 89.543 23.2589 89.6094C23.4304 89.6758 23.5829 89.7612 23.7067 89.875C23.8306 89.9794 23.8973 90.1122 23.8973 90.2545C23.8973 90.2925 23.8973 90.3209 23.8973 90.3684C23.8973 90.4063 23.8687 90.4538 23.8401 90.5107L20.3337 96.8293C20.2955 96.8863 20.286 96.9432 20.286 97.0191V101.307C20.286 101.497 20.1907 101.649 20.0097 101.744C19.8191 101.848 19.619 101.896 19.3903 101.896H19.3427Z" fill="white"/>
<path d="M32.4542 101.896C32.2636 101.896 32.0826 101.848 31.9111 101.744C31.7396 101.64 31.6538 101.497 31.6538 101.308V90.1123C31.6538 89.9225 31.7396 89.7707 31.9111 89.6758C32.0826 89.5715 32.2636 89.524 32.4542 89.524H38.5143C38.7335 89.524 38.886 89.6094 38.9717 89.7802C39.067 89.951 39.1051 90.1218 39.1051 90.302C39.1051 90.5202 39.0575 90.71 38.9527 90.8713C38.8478 91.0326 38.7049 91.1179 38.5143 91.1179H33.4642V94.9983H36.0846C36.2751 94.9983 36.4276 95.0742 36.5229 95.2165C36.6277 95.3683 36.6753 95.5296 36.6753 95.7289C36.6753 95.8902 36.6277 96.042 36.5419 96.1938C36.4466 96.3456 36.2942 96.4214 36.0846 96.4214H33.4642V100.321H38.5143C38.7049 100.321 38.8574 100.397 38.9527 100.558C39.0575 100.719 39.1051 100.909 39.1051 101.137C39.1051 101.317 39.0575 101.488 38.9717 101.659C38.8764 101.829 38.724 101.915 38.5143 101.915H32.4542V101.896Z" fill="white"/>
<path d="M50.5106 102C49.7865 102 49.1385 101.877 48.5668 101.63C47.9951 101.383 47.5377 100.985 47.2042 100.425C46.8707 99.8654 46.6992 99.1348 46.6992 98.224V93.2906C46.6992 92.3798 46.8707 91.6397 47.2042 91.0895C47.5377 90.5392 47.9951 90.1312 48.5668 89.8845C49.1385 89.6379 49.7865 89.5145 50.5106 89.5145C51.2348 89.5145 51.8732 89.6379 52.4544 89.8845C53.0357 90.1312 53.4931 90.5297 53.8361 91.0895C54.1791 91.6397 54.3506 92.3798 54.3506 93.2906V98.224C54.3506 99.1348 54.1791 99.8749 53.8361 100.425C53.4931 100.975 53.0357 101.383 52.4544 101.63C51.8732 101.877 51.2253 102 50.5106 102ZM50.5106 100.406C51.13 100.406 51.6255 100.226 51.9875 99.8749C52.3496 99.5238 52.5307 98.9641 52.5307 98.224V93.2906C52.5307 92.541 52.3496 91.9908 51.9971 91.6397C51.6445 91.2887 51.1395 91.1084 50.5106 91.1084C49.8817 91.1084 49.3767 91.2887 49.0242 91.6397C48.6716 91.9908 48.4906 92.5505 48.4906 93.2906V98.224C48.4906 98.9736 48.6716 99.5238 49.0242 99.8749C49.3767 100.226 49.8722 100.406 50.5106 100.406Z" fill="white"/>
<path d="M63.7076 101.896C63.5171 101.896 63.336 101.848 63.1645 101.744C62.993 101.64 62.9072 101.497 62.9072 101.308V90.0933C62.9072 89.8941 63.0025 89.7423 63.1836 89.6569C63.3741 89.562 63.5742 89.524 63.8029 89.524C64.0316 89.524 64.2317 89.5715 64.4223 89.6569C64.6128 89.7517 64.6986 89.8941 64.6986 90.0933V100.311H69.1198C69.3009 100.311 69.4343 100.397 69.5295 100.558C69.6248 100.719 69.6629 100.909 69.6629 101.108C69.6629 101.298 69.6153 101.478 69.5295 101.649C69.4343 101.82 69.3009 101.905 69.1198 101.905H63.6886L63.7076 101.896Z" fill="white"/>
<path d="M78.3532 101.896C78.1245 101.896 77.9149 101.848 77.7338 101.744C77.5433 101.64 77.4575 101.497 77.4575 101.307V90.4158C77.4575 90.0743 77.5528 89.8466 77.7338 89.7138C77.9244 89.5809 78.1245 89.5145 78.3532 89.5145C78.5724 89.5145 78.7534 89.543 78.9154 89.6094C79.0774 89.6758 79.2203 89.7802 79.3537 89.9225C79.4871 90.0648 79.63 90.2735 79.7825 90.5297L82.1646 95.0173L84.5753 90.5297C84.7182 90.2735 84.8612 90.0648 84.9946 89.9225C85.128 89.7802 85.2709 89.6663 85.4329 89.6094C85.5949 89.5525 85.7759 89.5145 85.9951 89.5145C86.2333 89.5145 86.4429 89.5809 86.624 89.7138C86.805 89.8466 86.9003 90.0743 86.9003 90.4158V101.307C86.9003 101.497 86.805 101.649 86.624 101.744C86.4334 101.848 86.2333 101.896 86.0046 101.896C85.7759 101.896 85.5663 101.848 85.3852 101.744C85.1947 101.64 85.1089 101.497 85.1089 101.307V93.1767L82.8316 97.3797C82.7363 97.522 82.641 97.6358 82.5267 97.6927C82.4123 97.7497 82.298 97.7876 82.1741 97.7876C82.0693 97.7876 81.9645 97.7592 81.8502 97.7022C81.7358 97.6453 81.6405 97.5409 81.5643 97.3797L79.287 93.0818V101.317C79.287 101.507 79.1917 101.659 79.0107 101.753C78.8201 101.858 78.62 101.905 78.3913 101.905L78.3532 101.896Z" fill="white"/>
<path d="M95.8285 101.896C95.6665 101.896 95.495 101.858 95.3139 101.791C95.1329 101.725 94.9804 101.64 94.8756 101.526C94.7708 101.412 94.7041 101.288 94.7041 101.146C94.7041 101.108 94.7041 101.061 94.7232 100.994L98.1058 90.0174C98.1725 89.8181 98.3154 89.6663 98.5346 89.562C98.7537 89.4576 98.9919 89.4102 99.2397 89.4102C99.4874 89.4102 99.7447 89.4576 99.9638 89.562C100.183 89.6663 100.326 89.8181 100.393 90.0174L103.756 100.994C103.775 101.061 103.794 101.118 103.794 101.146C103.794 101.279 103.737 101.402 103.613 101.516C103.499 101.63 103.346 101.715 103.175 101.791C102.994 101.858 102.822 101.896 102.66 101.896C102.517 101.896 102.384 101.867 102.279 101.81C102.174 101.753 102.098 101.659 102.051 101.526L101.355 99.1254H97.1339L96.4574 101.526C96.4192 101.659 96.343 101.753 96.2287 101.81C96.1143 101.867 95.9714 101.896 95.8285 101.896ZM97.5436 97.6738H100.945L99.2397 91.8674L97.5436 97.6738Z" fill="white"/>
<path d="M118.315 101.953C118.173 101.953 118.039 101.905 117.915 101.801C117.801 101.696 117.696 101.573 117.62 101.431L115.123 96.5827H113.418V101.307C113.418 101.497 113.323 101.649 113.141 101.744C112.951 101.848 112.751 101.896 112.522 101.896C112.293 101.896 112.084 101.848 111.903 101.744C111.712 101.64 111.626 101.497 111.626 101.307V90.0933C111.626 89.932 111.684 89.7992 111.788 89.6853C111.893 89.5715 112.046 89.5145 112.236 89.5145H115.466C116.181 89.5145 116.829 89.6189 117.42 89.8276C118.011 90.0363 118.477 90.3874 118.83 90.8902C119.183 91.3931 119.354 92.0856 119.354 92.968C119.354 93.6416 119.249 94.2108 119.04 94.6662C118.83 95.1216 118.544 95.4727 118.192 95.7383C117.839 96.004 117.429 96.1937 116.972 96.3265L119.354 100.786C119.354 100.786 119.392 100.862 119.402 100.909C119.411 100.956 119.421 101.004 119.421 101.032C119.421 101.175 119.364 101.326 119.249 101.459C119.135 101.602 118.992 101.715 118.83 101.81C118.668 101.905 118.497 101.943 118.315 101.943V101.953ZM113.418 95.1406H115.457C116.095 95.1406 116.6 94.9888 116.981 94.6852C117.363 94.3816 117.553 93.8598 117.553 93.1293C117.553 92.3987 117.363 91.8769 116.981 91.5733C116.6 91.2697 116.095 91.1179 115.457 91.1179H113.418V95.1501V95.1406Z" fill="white"/>
<path d="M131.179 102C130.455 102 129.807 101.877 129.235 101.63C128.664 101.383 128.206 100.985 127.873 100.425C127.539 99.8654 127.368 99.1348 127.368 98.224V93.2906C127.368 92.3798 127.539 91.6397 127.873 91.0895C128.206 90.5392 128.664 90.1312 129.235 89.8845C129.807 89.6379 130.455 89.5145 131.179 89.5145C131.903 89.5145 132.542 89.6379 133.123 89.8845C133.704 90.1312 134.162 90.5297 134.505 91.0895C134.848 91.6397 135.019 92.3798 135.019 93.2906V98.224C135.019 99.1348 134.848 99.8749 134.505 100.425C134.162 100.975 133.704 101.383 133.123 101.63C132.542 101.877 131.894 102 131.179 102ZM131.179 100.406C131.798 100.406 132.294 100.226 132.656 99.8749C133.018 99.5238 133.199 98.9641 133.199 98.224V93.2906C133.199 92.541 133.018 91.9908 132.666 91.6397C132.313 91.2887 131.808 91.1084 131.179 91.1084C130.55 91.1084 130.045 91.2887 129.693 91.6397C129.34 91.9908 129.159 92.5505 129.159 93.2906V98.224C129.159 98.9736 129.34 99.5238 129.693 99.8749C130.045 100.226 130.541 100.406 131.179 100.406Z" fill="white"/>
<path d="M41.6875 80.4445V67.7882C41.6875 53.3577 53.5505 41.5458 68.0434 41.5458C82.5363 41.5458 94.3993 53.3577 94.3993 67.7882V80.4445H41.6875Z" fill="white"/>
<path d="M41.6875 80.4445V67.7882C41.6875 53.3577 53.5505 41.5458 68.0434 41.5458C82.5363 41.5458 94.3992 53.3577 94.3992 67.7882V80.4445H41.6875Z" stroke="white" stroke-width="1.49"/>
<g opacity="0.29">
<path d="M30.9964 62.9495H29.5767V81.0801H30.9964V62.9495Z" fill="white"/>
</g>
<g opacity="0.29">
<path d="M106.519 81.0801H105.1V62.9495C105.1 48.8416 96.7907 35.7773 83.9367 29.6484C83.4127 29.4017 82.8791 29.155 82.3359 28.9273L82.8886 27.6276C83.4508 27.8648 84.0034 28.1114 84.5466 28.3676C97.8865 34.7337 106.51 48.3008 106.51 62.9495V81.0801H106.519Z" fill="white"/>
</g>
<g opacity="0.29">
<path d="M35.3029 45.7391L34.0547 45.075C40.4483 33.1018 52.8163 25.2841 66.3182 24.6864C66.8899 24.6579 67.4712 24.6484 68.0429 24.6484V26.0621C67.4902 26.0621 66.9281 26.0716 66.3754 26.1C53.369 26.6788 41.4583 34.2023 35.2934 45.7391H35.3029Z" fill="white"/>
</g>
<g opacity="0.29">
<path d="M120.421 80.4444H119.002V66.5262C119.002 61.7066 118.315 56.9344 116.962 52.3424L118.325 51.944C119.716 56.6687 120.421 61.5738 120.421 66.5262V80.4444Z" fill="white"/>
</g>
<g opacity="0.29">
<path d="M17.0941 80.4445H15.6743V66.5263C15.6743 37.7697 39.1716 14.3831 68.043 14.3831C85.404 14.3831 101.631 22.9977 111.436 37.4282L110.264 38.2156C100.716 24.1741 84.9371 15.7967 68.043 15.7967C39.9434 15.7967 17.0941 38.5572 17.0941 66.5263V80.4445Z" fill="white"/>
</g>
<path d="M41.4869 23.2822C42.3079 23.2822 42.9734 22.6196 42.9734 21.8022C42.9734 20.9848 42.3079 20.3221 41.4869 20.3221C40.666 20.3221 40.0005 20.9848 40.0005 21.8022C40.0005 22.6196 40.666 23.2822 41.4869 23.2822Z" fill="white"/>
<path d="M82.6124 29.7528C83.4334 29.7528 84.0989 29.0902 84.0989 28.2728C84.0989 27.4554 83.4334 26.7927 82.6124 26.7927C81.7915 26.7927 81.126 27.4554 81.126 28.2728C81.126 29.0902 81.7915 29.7528 82.6124 29.7528Z" fill="white"/>
<path d="M118.22 53.6328C119.041 53.6328 119.707 52.9702 119.707 52.1528C119.707 51.3354 119.041 50.6727 118.22 50.6727C117.399 50.6727 116.734 51.3354 116.734 52.1528C116.734 52.9702 117.399 53.6328 118.22 53.6328Z" fill="white"/>
<path d="M33.2736 41.5458L34.7887 44.6007L38.1713 45.0941L35.7225 47.466L36.3037 50.8245L33.2736 49.2401L30.2436 50.8245L30.8248 47.466L28.376 45.0941L31.7586 44.6007L33.2736 41.5458Z" fill="white"/>
<path d="M68.043 66.2986L134.628 17.8365L116.724 0L68.043 66.2986Z" fill="white"/>
</g>
<defs>
<clipPath id="clip0_72_120">
<rect width="135" height="102" fill="white"/>
</clipPath>
</defs>
</svg>
