<svg width="503" height="506" viewBox="0 0 503 506" fill="none" xmlns="http://www.w3.org/2000/svg">
<path d="M304.867 319.908C366.589 304.932 431.423 291.406 493.145 276.43C444.39 256.623 389.41 253.725 340.655 235.367C332.356 231.985 324.058 227.638 314.721 228.121C312.647 211.213 310.053 194.304 307.46 177.879C302.792 145.512 298.124 113.145 291.381 81.2609C286.195 54.6908 279.452 28.6039 271.672 3C265.448 22.3237 259.224 41.6473 256.112 61.4541C254.556 71.1159 253.518 81.2609 251.962 90.9227C245.219 132.469 227.066 173.048 224.473 215.077C188.165 221.841 151.858 228.604 115.551 235.367C105.697 237.299 95.8418 239.232 85.987 240.198C72.5015 241.647 59.016 242.13 46.5679 246.961C62.128 251.309 79.763 255.174 95.3232 259.522C105.178 262.42 115.033 264.836 124.887 268.217C158.601 280.295 189.203 301.068 225.51 305.415C234.846 371.116 244.182 437.783 256.112 503C255.074 488.024 259.742 473.531 263.892 459.522C277.896 414.594 292.419 366.285 304.867 319.908Z" stroke="white" stroke-opacity="0.5" stroke-width="5" stroke-miterlimit="10" stroke-linecap="round" stroke-linejoin="round"/>
<path d="M193.871 160.487C168.456 139.714 135.779 127.637 111.402 106.381C127.999 138.748 144.078 171.598 160.676 203.966C168.456 202.516 175.717 200.584 184.016 199.135C190.759 198.169 196.983 197.202 203.726 197.685C198.539 186.574 195.427 172.082 193.871 160.487Z" stroke="white" stroke-opacity="0.5" stroke-width="5" stroke-miterlimit="10" stroke-linecap="round" stroke-linejoin="round"/>
<path d="M143.561 24.739C158.602 48.4105 173.125 72.5651 187.129 97.2028" stroke="white" stroke-opacity="0.5" stroke-width="5" stroke-miterlimit="10" stroke-linecap="round" stroke-linejoin="round"/>
<path d="M374.37 211.212C362.959 206.381 350.511 203.966 338.063 203.966C338.582 191.888 338.582 179.811 338.582 167.734C373.333 156.14 406.528 144.545 441.279 132.951C418.457 158.072 395.117 184.159 374.37 211.212Z" stroke="white" stroke-opacity="0.5" stroke-width="5" stroke-miterlimit="10" stroke-linecap="round" stroke-linejoin="round"/>
<path d="M335.989 111.212C352.586 88.9902 369.184 66.7679 386.3 45.0288" stroke="white" stroke-opacity="0.5" stroke-width="5" stroke-miterlimit="10" stroke-linecap="round" stroke-linejoin="round"/>
<path d="M416.383 212.661C445.428 211.212 474.474 207.83 503.001 203" stroke="white" stroke-opacity="0.5" stroke-width="5" stroke-miterlimit="10" stroke-linecap="round" stroke-linejoin="round"/>
<path d="M19.0796 178.845C46.5692 185.608 74.5775 191.888 102.067 198.652" stroke="white" stroke-opacity="0.5" stroke-width="5" stroke-miterlimit="10" stroke-linecap="round" stroke-linejoin="round"/>
<path d="M179.867 363.386C150.303 377.879 121.776 393.821 93.7676 411.212C108.809 383.193 124.369 355.174 139.411 326.671C156.527 328.604 173.124 329.57 190.241 331.985C188.685 343.58 183.498 352.758 179.867 363.386Z" stroke="white" stroke-opacity="0.5" stroke-width="5" stroke-miterlimit="10" stroke-linecap="round" stroke-linejoin="round"/>
<path d="M372.813 342.13C380.074 360.488 387.336 378.845 394.597 397.203C398.746 408.314 403.415 419.425 411.195 428.604C383.186 412.179 354.141 397.203 324.058 384.159C325.614 369.183 325.095 356.623 326.132 341.164C341.174 340.681 357.771 343.096 372.813 342.13Z" stroke="white" stroke-opacity="0.5" stroke-width="5" stroke-miterlimit="10" stroke-linecap="round" stroke-linejoin="round"/>
<path d="M3 334.884C31.527 331.986 59.0166 325.706 85.4689 316.044" stroke="white" stroke-opacity="0.5" stroke-width="5" stroke-miterlimit="10" stroke-linecap="round" stroke-linejoin="round"/>
<path d="M134.223 492.855C148.227 469.183 161.713 445.029 173.642 420.391C173.642 420.874 173.642 421.357 173.124 421.84" stroke="white" stroke-opacity="0.5" stroke-width="5" stroke-miterlimit="10" stroke-linecap="round" stroke-linejoin="round"/>
<path d="M314.203 436.333C327.689 456.623 341.174 476.913 353.622 497.686" stroke="white" stroke-opacity="0.5" stroke-width="5" stroke-miterlimit="10" stroke-linecap="round" stroke-linejoin="round"/>
<path d="M422.086 331.502C446.464 337.3 470.322 344.546 494.181 352.758" stroke="white" stroke-opacity="0.5" stroke-width="5" stroke-miterlimit="10" stroke-linecap="round" stroke-linejoin="round"/>
<path d="M260.262 321.357C260.781 308.313 265.449 294.787 273.747 284.159C282.046 273.531 294.494 263.869 308.498 261.454C295.013 260.971 282.565 253.724 274.785 244.062C267.005 234.4 260.781 222.806 259.225 210.246C258.706 222.806 255.594 235.85 248.851 246.961C241.59 258.072 229.66 266.284 216.175 267.734C229.66 267.734 240.552 274.497 248.333 284.642C256.113 295.27 260.262 308.797 260.262 321.357Z" stroke="white" stroke-opacity="0.5" stroke-width="5" stroke-miterlimit="10" stroke-linecap="round" stroke-linejoin="round"/>
<path d="M350.51 192.372C361.402 184.159 373.332 175.946 385.261 169.183" stroke="white" stroke-opacity="0.5" stroke-width="5" stroke-miterlimit="10" stroke-linecap="round" stroke-linejoin="round"/>
<path d="M159.121 162.42C167.938 171.116 176.755 179.329 185.573 187.541" stroke="white" stroke-opacity="0.5" stroke-width="5" stroke-miterlimit="10" stroke-linecap="round" stroke-linejoin="round"/>
<path d="M131.63 372.082C143.559 362.42 156.007 353.725 168.974 345.995" stroke="white" stroke-opacity="0.5" stroke-width="5" stroke-miterlimit="10" stroke-linecap="round" stroke-linejoin="round"/>
<path d="M345.324 358.556C352.066 366.286 359.328 374.015 366.071 381.744C367.108 382.711 368.145 384.16 369.701 384.643" stroke="white" stroke-opacity="0.5" stroke-width="5" stroke-miterlimit="10" stroke-linecap="round" stroke-linejoin="round"/>
</svg>
