<svg width="388" height="533" viewBox="0 0 388 533" fill="none" xmlns="http://www.w3.org/2000/svg">
<path d="M123.56 168.15C69.2339 134.772 -0.379341 128.186 -58.9777 150.235C-117.986 172.493 -165.16 222.965 -184.237 283.851" stroke="white" stroke-opacity="0.2" stroke-width="5" stroke-miterlimit="10" stroke-linecap="round" stroke-linejoin="round"/>
<path d="M75.997 194.572C42.6619 179.984 3.75205 178.789 -29.9624 191.806C-63.6768 204.824 -91.9991 231.427 -106.774 264.283" stroke="white" stroke-opacity="0.2" stroke-width="5" stroke-miterlimit="10" stroke-linecap="round" stroke-linejoin="round"/>
<path d="M97.481 243.687C47.2817 222.432 -14.0333 230.054 -56.5203 263.371C-99.2208 296.27 -122.7 353.608 -115.612 407.971" stroke="white" stroke-opacity="0.2" stroke-width="5" stroke-miterlimit="10" stroke-linecap="round" stroke-linejoin="round"/>
<path d="M302.666 305.901C263.497 250.542 222.901 196.439 180.467 143.802C175.853 203.621 174.341 263.435 176.967 323.242C219.498 279.887 262.405 234.231 304.936 190.876C241.502 195.364 179.708 199.014 116.291 204.548C119.675 209.144 124.487 212.483 128.676 215.613C166.334 241.697 206.011 264.641 247.295 284.655C254.8 288.198 262.304 291.742 269.809 295.286C281.682 300.287 290.99 300.273 302.666 305.901Z" stroke="white" stroke-opacity="0.2" stroke-width="5" stroke-miterlimit="10" stroke-linecap="round" stroke-linejoin="round"/>
<path d="M347.175 244.142C329.771 242.495 312.565 240.221 295.144 237.529" stroke="white" stroke-opacity="0.2" stroke-width="5" stroke-miterlimit="10" stroke-linecap="round" stroke-linejoin="round"/>
<path d="M351.04 291.189C339.988 285.768 329.116 278.674 318.655 271.371C314.68 268.658 311.33 266.154 307.355 263.441" stroke="white" stroke-opacity="0.2" stroke-width="5" stroke-miterlimit="10" stroke-linecap="round" stroke-linejoin="round"/>
<path d="M239.879 324.82C246.306 338.404 252.732 351.988 259.159 365.571C260.013 367.243 260.458 369.125 259.44 370.172" stroke="white" stroke-opacity="0.2" stroke-width="5" stroke-miterlimit="10" stroke-linecap="round" stroke-linejoin="round"/>
<path d="M210.329 326.748C206.873 343.275 204.88 360.636 205.151 377.366" stroke="white" stroke-opacity="0.2" stroke-width="5" stroke-miterlimit="10" stroke-linecap="round" stroke-linejoin="round"/>
<path d="M249.486 113.792C244.552 128.439 239.208 143.295 234.898 158.15" stroke="white" stroke-opacity="0.2" stroke-width="5" stroke-miterlimit="10" stroke-linecap="round" stroke-linejoin="round"/>
<path d="M294.934 122.716C283.727 133.189 272.519 143.663 260.688 153.929" stroke="white" stroke-opacity="0.2" stroke-width="5" stroke-miterlimit="10" stroke-linecap="round" stroke-linejoin="round"/>
<path d="M122.756 105.83C131.235 118.365 139.302 131.109 147.567 143.226" stroke="white" stroke-opacity="0.2" stroke-width="5" stroke-miterlimit="10" stroke-linecap="round" stroke-linejoin="round"/>
<path d="M133.967 286.711C119.735 289.242 105.716 292.192 91.5004 295.769" stroke="white" stroke-opacity="0.2" stroke-width="5" stroke-miterlimit="10" stroke-linecap="round" stroke-linejoin="round"/>
</svg>
